<svg width="1367" height="1369" viewBox="0 0 1367 1369" fill="none" xmlns="http://www.w3.org/2000/svg">
<path d="M681.667 0.000221228C685.704 0.00239598 685.704 0.00239598 689.823 0.00461469C733.838 0.113298 776.272 2.53215 819.467 11.664C822.245 12.2496 825.022 12.8351 827.884 13.4383C953.423 40.8212 1065.2 101.856 1158.05 190.287C1160.45 192.568 1160.45 192.568 1162.89 194.894C1185.13 216.23 1205.52 238.142 1223.87 262.911C1227.42 267.666 1231.03 272.358 1234.66 277.047C1254.28 302.709 1270.58 329.903 1286.02 358.246C1286.98 360.007 1287.95 361.768 1288.94 363.582C1336.21 450.894 1365.99 552.782 1366.54 652.455C1366.56 654.738 1366.58 657.02 1366.6 659.371C1366.64 666.692 1366.66 674.013 1366.67 681.334C1366.67 685.093 1366.67 685.093 1366.67 688.928C1366.63 726.807 1365.16 763.517 1358 800.805C1357.38 804.34 1357.38 804.34 1356.74 807.946C1337.7 915.004 1292.05 1016.77 1224.7 1102.06C1222.18 1105.35 1222.18 1105.35 1219.61 1108.71C1204.64 1127.95 1188.19 1145.75 1171.38 1163.38C1170.12 1164.71 1168.85 1166.03 1167.55 1167.4C1150.35 1185.32 1132.27 1201.4 1112.73 1216.7C1110.1 1218.81 1107.48 1220.92 1104.77 1223.09C1016.64 1293.17 911.223 1337.92 800.805 1358C798.44 1358.44 796.076 1358.88 793.64 1359.34C720.75 1372.29 638.874 1372.05 566.195 1358C563.721 1357.54 561.247 1357.09 558.698 1356.62C454.542 1337.01 350.571 1294.25 267.602 1227.37C265.124 1225.4 262.646 1223.43 260.093 1221.4C217.027 1186.72 176.036 1148.68 143.107 1104.09C139.503 1099.22 135.839 1094.41 132.166 1089.59C115.183 1067.12 100.202 1043.91 86.3125 1019.42C84.5667 1016.4 82.8209 1013.38 81.0221 1010.26C47.8649 951.531 26.1832 886.896 12.1639 821.133C11.6439 818.698 11.1239 816.263 10.5882 813.755C1.93867 770.687 4.0614e-05 728.317 0.166872 684.5C0.172617 681.785 0.178363 679.07 0.184283 676.274C0.316771 637.291 1.13167 599.17 8.99805 560.863C9.52772 558.164 10.0574 555.464 10.6031 552.683C30.2515 454.426 69.6948 361.859 128.969 280.932C130.078 279.404 131.187 277.876 132.33 276.303C147.132 256.041 163.27 237.472 180.519 219.28C187.569 211.864 187.569 211.864 193.297 204.482C197.828 198.853 202.27 194.419 207.783 189.787C216.399 182.452 224.692 174.869 232.943 167.126C320.24 87.8636 430.739 36.8072 545.367 12.3305C547.833 11.8004 550.298 11.2703 552.839 10.7242C595.72 2.01416 638.019 -0.0885732 681.667 0.000221228Z" fill="#FF1100"/>
<path d="M614.797 165.151C617.369 165.141 619.942 165.131 622.592 165.12C625.516 165.081 628.44 165.041 631.453 165C636.18 165.038 636.18 165.038 641.003 165.077C645.87 165.059 645.87 165.059 650.835 165.041C657.699 165.032 664.563 165.055 671.427 165.108C681.935 165.176 692.437 165.109 702.945 165.028C709.611 165.036 716.277 165.053 722.943 165.077C727.661 165.039 727.661 165.039 732.474 165C754.174 165.294 754.174 165.294 764.37 172.476C770.682 182.176 773.619 192.326 776.532 203.396C777.195 205.719 777.858 208.042 778.542 210.436C782.122 223.101 785.287 235.794 788.116 248.647C792.987 274.677 792.987 274.677 807.222 295.832C814.47 299.023 820.992 300.746 828.729 302.296C830.708 303.467 832.686 304.637 834.725 305.843C844.178 309.787 850.331 307.664 860.245 305.449C868.812 301.907 868.812 301.907 877.172 297.31C880.282 295.67 883.392 294.03 886.596 292.341C889.795 290.62 892.994 288.899 896.29 287.126C899.477 285.442 902.664 283.758 905.948 282.023C919.185 275.001 932.285 267.941 945.053 260.099C955.239 254.78 959.372 253.781 970.549 255.013C976.272 258.716 976.272 258.716 981.595 263.973C983.613 265.931 985.631 267.89 987.71 269.908C989.835 272.055 991.959 274.202 994.148 276.414C996.364 278.608 998.58 280.802 1000.86 283.063C1005.54 287.712 1010.19 292.382 1014.82 297.071C1021.93 304.235 1029.12 311.302 1036.32 318.365C1040.85 322.895 1045.37 327.43 1049.89 331.971C1052.05 334.08 1054.2 336.189 1056.43 338.362C1070.88 353.183 1070.88 353.183 1073.27 365.691C1071.15 376.005 1067.84 383.815 1062.88 393.107C1061.09 396.502 1059.3 399.897 1057.45 403.395C1055.55 406.895 1053.66 410.396 1051.7 414.002C1049.85 417.491 1048 420.979 1046.1 424.573C1038.56 438.741 1030.95 452.822 1022.8 466.642C1017.22 475.042 1017.22 475.042 1017.82 483.154C1021.73 493.406 1026.19 503.331 1030.93 513.223C1033.58 519.798 1033.58 519.798 1033.58 529.255C1036.59 529.592 1039.6 529.929 1042.7 530.277C1057.65 532.42 1071.78 536.822 1086.17 541.272C1088.94 542.116 1091.7 542.96 1094.55 543.83C1154.91 562.344 1154.91 562.344 1159.64 567.081C1159.93 571.919 1160.01 576.771 1160 581.618C1160 584.71 1160 587.802 1160 590.988C1159.98 594.35 1159.97 597.712 1159.95 601.176C1159.94 606.312 1159.94 606.312 1159.94 611.552C1159.92 622.537 1159.88 633.522 1159.84 644.507C1159.82 651.934 1159.81 659.361 1159.79 666.788C1159.76 685.038 1159.71 703.288 1159.64 721.539C1144.69 728.347 1129.92 735.038 1114.23 739.984C1111.3 740.91 1108.38 741.837 1105.37 742.791C1102.41 743.71 1099.46 744.628 1096.41 745.574C1093.45 746.517 1090.48 747.46 1087.42 748.431C1084.5 749.349 1081.58 750.267 1078.57 751.214C1075.75 752.104 1072.93 752.993 1070.02 753.91C1062.65 756.012 1055.44 757.38 1047.9 758.7C1036.01 761.549 1036.01 761.549 1029.91 772.122C1027.63 777.9 1027.63 777.9 1025.31 783.795C1023.71 787.614 1022.11 791.434 1020.46 795.369C1016.01 814.406 1025.25 828.541 1034.28 845.115C1036.24 848.723 1038.19 852.331 1040.21 856.049C1042.27 859.809 1044.32 863.568 1046.38 867.328C1048.45 871.136 1050.52 874.945 1052.59 878.755C1056.37 885.7 1060.15 892.642 1063.94 899.579C1070.59 911.839 1073.18 918.525 1071.4 932.736C1065.78 939.784 1060.64 945.276 1054.05 951.267C1052.3 952.952 1050.54 954.637 1048.73 956.373C1043.13 961.742 1037.48 967.045 1031.81 972.335C1024.33 979.312 1016.92 986.348 1009.54 993.428C1007.8 995.011 1006.06 996.594 1004.26 998.225C998.833 1003.23 998.833 1003.23 992.609 1011.54C992.767 1022.52 996.906 1030.62 1002.16 1040.12C1003.42 1042.43 1004.67 1044.74 1005.97 1047.12C1007.28 1049.49 1008.59 1051.85 1009.94 1054.29C1012.55 1059.02 1015.14 1063.75 1017.72 1068.49C1018.87 1070.57 1020.03 1072.65 1021.21 1074.79C1031.55 1096.45 1029.54 1120.7 1022.16 1142.95C1011.3 1169.68 997.432 1182.46 971.398 1194.54C957.98 1200.13 947.719 1201.1 933.21 1201.18C929.898 1201.2 929.898 1201.2 926.519 1201.23C919.102 1201.28 911.686 1201.3 904.268 1201.33C898.957 1201.36 893.645 1201.39 888.334 1201.42C870.866 1201.52 853.399 1201.59 835.931 1201.65C832.957 1201.66 829.982 1201.67 826.918 1201.68C798.849 1201.77 770.78 1201.86 742.712 1201.91C706.851 1201.98 670.992 1202.11 635.132 1202.33C609.898 1202.48 584.664 1202.56 559.429 1202.58C544.371 1202.6 529.314 1202.64 514.256 1202.77C500.067 1202.89 485.88 1202.91 471.691 1202.87C466.508 1202.87 461.324 1202.9 456.142 1202.97C421.786 1203.4 392.842 1199.57 365.488 1176.46C347.266 1158.28 339.78 1131.79 338.074 1106.7C338.962 1079.45 353.634 1054.77 369.54 1033.29C375.558 1024.86 375.558 1024.86 374.77 1016.83C370.618 1005.2 362.966 998.448 354.102 990.276C350.506 986.823 346.912 983.369 343.318 979.914C337.637 974.526 331.941 969.158 326.219 963.814C320.692 958.629 315.236 953.378 309.784 948.115C308.054 946.538 306.324 944.962 304.542 943.337C299.792 938.715 299.792 938.715 292.967 929.584C292.761 914.432 299.356 903.145 306.546 890.07C307.576 888.175 308.606 886.281 309.667 884.328C312.938 878.319 316.246 872.33 319.559 866.343C322.853 860.341 326.139 854.335 329.416 848.323C332.391 842.874 335.389 837.437 338.387 832C348.096 815.248 348.096 815.248 346.864 797.056C344.56 792.149 344.56 792.149 342.21 787.144C333.937 769.201 333.937 769.201 333.937 762.517C331.706 761.983 329.474 761.449 327.174 760.899C302.246 754.815 277.704 747.793 253.179 740.255C249.494 739.148 245.81 738.04 242.013 736.899C238.507 735.825 235.001 734.75 231.389 733.643C228.23 732.679 225.071 731.716 221.816 730.724C214.179 727.843 214.179 727.843 207.876 721.539C207.075 714.959 207.075 714.959 207.06 706.744C207.04 703.673 207.02 700.601 207 697.437C207.013 694.11 207.026 690.784 207.039 687.357C207.033 683.953 207.027 680.548 207.02 677.04C207.016 669.833 207.028 662.625 207.054 655.418C207.088 644.355 207.054 633.295 207.014 622.232C207.018 615.242 207.026 608.252 207.039 601.263C207.026 597.936 207.013 594.61 207 591.183C207.02 588.112 207.04 585.04 207.06 581.875C207.065 579.164 207.07 576.454 207.075 573.661C207.876 567.081 207.876 567.081 214.179 560.777C221.913 558.179 229.571 555.868 237.421 553.684C239.758 552.994 242.095 552.303 244.503 551.592C257.851 547.67 271.198 544.18 284.768 541.112C314.821 534.959 314.821 534.959 338.16 516.929C342.206 507.275 344.752 498.567 346.544 488.276C347.246 486.326 347.948 484.377 348.672 482.368C350.106 472.98 347.031 468.684 342.395 460.485C340.764 457.553 339.133 454.622 337.452 451.601C335.707 448.555 333.962 445.51 332.165 442.372C327.136 433.402 327.136 433.402 322.107 424.432C316.919 415.192 311.687 406 306.277 396.888C304.521 393.861 302.766 390.833 300.957 387.714C299.349 385.004 297.74 382.294 296.083 379.501C292.063 369.363 291.96 366.035 296.119 355.884C302.697 347.358 310.131 339.801 317.712 332.168C319.894 329.944 322.075 327.72 324.323 325.429C328.943 320.744 333.58 316.077 338.232 311.425C345.338 304.291 352.336 297.062 359.334 289.823C363.838 285.282 368.348 280.746 372.864 276.217C374.946 274.044 377.028 271.87 379.174 269.631C393.965 255.122 393.965 255.122 408.206 254.606C419.602 258.354 429.36 262.829 439.822 268.706C441.704 269.743 443.587 270.781 445.527 271.85C451.485 275.137 457.418 278.467 463.348 281.807C469.289 285.145 475.236 288.471 481.202 291.764C486.609 294.749 491.993 297.773 497.375 300.8C514.486 308.837 527.414 309.962 545.288 303.872C557.198 298.467 562.756 295.02 569.281 283.58C572.698 273.427 575.525 263.439 577.966 253.023C580.692 241.662 583.892 230.444 587.084 219.206C588.74 213.354 590.353 207.488 591.919 201.611C592.659 198.905 593.399 196.198 594.161 193.41C594.803 191.004 595.446 188.598 596.108 186.118C599.978 175.897 603.642 167.826 614.797 165.151Z" fill="#FFF8F8"/>
<path d="M631.01 240C665.752 240 700.495 240 736.291 240C739.427 250.266 742.564 260.533 745.795 271.11C746.829 274.45 747.864 277.79 748.93 281.231C752.943 294.262 756.892 307.204 759.801 320.531C763.239 338.68 763.239 338.68 773.886 352.888C780.755 356.029 787.52 357.982 794.78 360.048C800.354 362.669 805.899 365.355 811.413 368.1C823.217 373.913 831.339 375.693 844.496 374.688C853.829 371.11 853.829 371.11 863.174 365.927C864.881 365.031 866.588 364.135 868.346 363.212C873.757 360.361 879.14 357.46 884.524 354.558C888.173 352.629 891.823 350.704 895.474 348.782C914.215 338.935 914.215 338.935 932.23 327.84C943.274 327.668 948.808 331.929 956.517 339.197C960.03 342.76 963.509 346.357 966.958 349.983C968.762 351.843 970.567 353.704 972.426 355.62C977.584 360.968 982.694 366.357 987.795 371.76C990.177 374.24 992.56 376.72 995.014 379.274C1008.27 393.602 1008.27 393.602 1008.27 406.896C1004.92 414.713 1004.92 414.713 1000.26 423.538C998.582 426.736 996.907 429.935 995.18 433.231C993.406 436.558 991.633 439.885 989.805 443.313C987.196 448.287 987.196 448.287 984.533 453.361C971.442 478.213 971.442 478.213 965.264 487.955C959.999 497.377 961.54 502.024 964.399 512.304C967.083 519.269 969.958 526.162 972.99 532.983C981.933 553.246 981.933 553.246 983.979 561.348C990.034 571.803 1000.02 573.371 1011.01 576.537C1013.31 577.251 1015.61 577.965 1017.99 578.7C1022.89 580.218 1027.81 581.712 1032.73 583.184C1042.98 586.269 1053.16 589.527 1063.35 592.789C1074.22 596.251 1085.11 599.656 1096 603.072C1096 636.89 1096 670.709 1096 705.552C1088.46 708.088 1080.92 710.625 1073.15 713.238C1070.61 714.129 1068.06 715.02 1065.44 715.938C1053.16 720.189 1041.21 723.707 1028.42 726.037C1002.55 730.981 1002.55 730.981 982.764 747.194C970.049 769.259 957.939 794.174 964.399 819.744C967.416 826.274 970.702 832.684 974.178 838.982C975.14 840.749 976.103 842.516 977.095 844.337C980.15 849.939 983.239 855.521 986.332 861.102C989.422 866.706 992.504 872.314 995.57 877.93C998.348 883.013 1001.15 888.083 1003.95 893.151C1011.1 907.366 1011.1 907.366 1011.19 913.44C1006.25 920.145 1006.25 920.145 998.887 927.394C996.265 929.998 993.643 932.602 990.942 935.286C989.556 936.625 988.171 937.964 986.743 939.343C982.505 943.442 978.324 947.592 974.149 951.756C953.561 972 953.561 972 946.852 972C945.216 969.011 943.58 966.021 941.894 962.941C927.247 936.301 912.259 909.878 896.953 883.611C895.217 880.624 893.48 877.638 891.691 874.561C883.975 861.342 876.204 848.179 868.097 835.196C866.842 833.172 865.587 831.148 864.294 829.062C862.016 825.412 859.709 821.782 857.364 818.175C850.284 806.82 850.284 806.82 850.562 798.939C853.955 791.988 858.105 786.202 862.774 780.033C898.581 730.077 906.292 671.029 898.233 611.124C890.83 574.272 873.72 535.387 846.712 508.77C841.571 503.52 841.571 503.52 841.571 497.664C839.83 496.864 838.088 496.064 836.294 495.239C830.089 491.923 825.845 488.538 820.735 483.756C777.408 446.142 717.625 432.086 661.218 435.491C606.368 441.005 555.21 467.286 518.612 508.633C475.563 563.363 461.858 619.754 467.24 687.984C472.02 726.942 491.007 766.997 516.956 796.32C512.118 809.587 505.559 821.556 498.678 833.835C497.419 836.091 496.16 838.347 494.864 840.671C470.02 884.975 444.543 928.985 417.524 972C402.945 959.679 388.817 947.049 375.119 933.753C373.234 932 371.349 930.247 369.407 928.44C367.643 926.717 365.879 924.994 364.061 923.219C362.461 921.69 360.86 920.161 359.212 918.586C356.11 913.44 356.11 913.44 356.557 906.48C359.295 897.992 362.866 890.978 367.328 883.256C369.828 878.889 369.827 878.889 372.377 874.432C374.127 871.422 375.876 868.412 377.678 865.311C382.738 856.523 387.788 847.73 392.8 838.915C396.096 833.133 399.453 827.386 402.833 821.654C408.736 806.336 402.17 793.282 395.956 778.935C394.112 774.638 394.112 774.638 392.232 770.254C390.927 767.261 389.623 764.268 388.279 761.184C386.854 755.896 386.854 755.896 385.4 750.501C376.37 735.467 364.076 734.059 347.702 729.891C344.678 729.049 341.654 728.207 338.539 727.339C332.532 725.666 326.516 724.024 320.491 722.415C309.986 719.584 299.606 716.455 289.213 713.238C284.881 711.936 284.881 711.936 280.462 710.607C274.225 708.48 274.225 708.48 271.301 705.552C271.042 697.958 270.963 690.442 271.015 682.849C271.021 679.443 271.021 679.443 271.027 675.968C271.044 668.688 271.081 661.409 271.118 654.129C271.132 649.205 271.146 644.281 271.158 639.357C271.19 627.262 271.241 615.167 271.301 603.072C272.955 602.521 274.609 601.969 276.313 601.401C287.03 597.827 297.744 594.246 308.45 590.639C311.873 589.488 315.296 588.337 318.823 587.151C320.684 586.493 322.544 585.835 324.461 585.157C333.758 581.928 342.151 579.547 351.94 578.058C363.114 576.122 370.056 574.32 379.506 567.936C390.758 551.402 397.687 531.524 402.901 512.304C403.656 509.526 404.41 506.749 405.187 503.887C406.029 491.835 402.534 485.916 396.721 475.395C395.757 473.621 394.793 471.847 393.8 470.019C390.725 464.385 387.584 458.791 384.441 453.195C382.359 449.402 380.282 445.607 378.209 441.809C367.699 422.566 367.699 422.566 356.11 403.968C356.845 387.132 374.584 374.938 385.78 363.69C390.276 359.147 394.689 354.532 399.103 349.909C401.96 347.012 404.821 344.12 407.688 341.233C410.273 338.594 412.858 335.954 415.521 333.235C423.373 327.84 423.373 327.84 432.025 327.895C441.655 331.005 449.744 334.918 458.546 339.918C461.828 341.745 465.11 343.572 468.491 345.454C473.629 348.355 478.761 351.267 483.889 354.186C488.891 357.021 493.916 359.816 498.941 362.61C501.907 364.293 504.874 365.977 507.93 367.711C527.052 376.289 540.633 374.995 559.589 367.906C562.167 366.883 564.746 365.86 567.403 364.806C570.027 363.896 572.65 362.987 575.354 362.05C589.587 356.596 589.587 356.596 599.338 345.449C601.609 338.65 603.191 331.92 604.69 324.912C606.094 320.569 607.556 316.245 609.076 311.942C610.162 308.72 610.162 308.72 611.27 305.434C612.725 301.116 614.187 296.8 615.656 292.487C621.5 275.087 626.161 257.801 631.01 240Z" fill="#FF1100"/>
<path d="M717.804 647.483C738.5 666.521 751.481 697.831 765.333 722.041C768.324 727.243 771.315 732.446 774.306 737.649C777.382 742.999 780.454 748.352 783.526 753.705C793.104 770.388 802.735 787.04 812.361 803.696C816.154 810.264 819.946 816.831 823.738 823.399C825.616 826.65 827.493 829.901 829.427 833.251C850.286 869.374 871.145 905.497 892.004 941.62C894.824 946.503 894.824 946.503 897.701 951.484C901.467 958.007 905.232 964.531 908.997 971.055C917.823 986.348 926.657 1001.64 935.525 1016.9C938.659 1022.3 941.791 1027.7 944.921 1033.1C948.846 1039.87 952.777 1046.64 956.714 1053.4C988.431 1108.14 988.431 1108.14 983.783 1131.08C977.087 1146.57 967.62 1158.13 953.443 1167.45C942.873 1170.97 934.6 1170.89 923.442 1170.93C921.304 1170.94 919.165 1170.95 916.962 1170.96C909.779 1171 902.596 1171.01 895.413 1171.02C890.27 1171.04 885.127 1171.06 879.984 1171.08C865.999 1171.13 852.013 1171.16 838.028 1171.19C829.292 1171.2 820.555 1171.22 811.819 1171.24C784.49 1171.3 757.161 1171.34 729.832 1171.37C698.277 1171.4 666.722 1171.48 635.167 1171.6C610.781 1171.69 586.395 1171.74 562.009 1171.75C547.442 1171.75 532.875 1171.78 518.308 1171.86C504.604 1171.93 490.901 1171.94 477.196 1171.91C472.169 1171.91 467.142 1171.93 462.116 1171.97C455.246 1172.02 448.38 1172 441.51 1171.96C435.746 1171.97 435.746 1171.97 429.867 1171.98C414.154 1169.72 404.871 1162.38 394.424 1150.78C383.297 1134.9 380.075 1123.03 383.047 1103.79C393.249 1079.35 407.285 1056.44 420.782 1033.69C424.545 1027.3 428.306 1020.91 432.065 1014.51C433.989 1011.24 435.914 1007.98 437.896 1004.61C447.443 988.332 456.869 971.987 466.293 955.639C468.18 952.368 470.066 949.097 472.01 945.727C475.841 939.086 479.671 932.445 483.5 925.803C492.99 909.347 502.492 892.897 511.993 876.447C515.785 869.879 519.578 863.311 523.37 856.743C530.955 843.608 538.54 830.472 546.125 817.337C548.005 814.081 549.884 810.826 551.821 807.472C555.59 800.946 559.36 794.42 563.132 787.895C571.94 772.652 580.737 757.404 589.49 742.13C592.573 736.752 595.659 731.376 598.747 726.001C602.606 719.28 606.459 712.555 610.302 705.824C645.014 645.442 645.014 645.442 667.972 638.171C684.739 635.009 703.405 638.297 717.804 647.483Z" fill="#FF1100"/>
<path d="M755.482 491.547C758.118 492.674 760.754 493.801 763.47 494.963C804.865 515.161 833.081 551.709 848.793 594.188C863.095 636.697 860.937 684.698 841.128 724.823C835.193 736.761 829.634 746.546 819.467 755.482C803.173 729.766 788.008 703.426 772.931 676.982C746.436 626.565 746.435 626.565 699.496 598.188C679.304 595.455 662.785 597.273 644.614 606.519C624.986 621.763 613.259 642.351 601.397 663.779C598.643 668.75 595.857 673.702 593.062 678.65C587.64 688.253 582.248 697.873 576.859 707.494C571.736 716.628 566.574 725.737 561.363 734.821C560.324 736.692 559.285 738.563 558.215 740.491C555.312 745.526 555.312 745.527 550.199 752.816C547.56 752.816 544.92 752.816 542.201 752.816C514.077 718.776 507.793 675.256 510.209 632.846C515.45 584.138 538.727 543.856 575.985 512.365C627.809 472.105 695.529 465.666 755.482 491.547Z" fill="#FF1100"/>
<path d="M706.599 751.078C718.112 758.316 725.495 764.881 731.489 777.259C732.284 784.894 732.589 791.798 732.447 799.421C732.423 801.703 732.4 803.985 732.376 806.337C731.705 839.198 728.426 871.942 725.24 904.637C724.318 914.122 723.464 923.612 722.625 933.105C721.963 940.491 721.257 947.872 720.538 955.253C720.043 960.443 719.591 965.637 719.14 970.831C718.82 973.967 718.501 977.103 718.172 980.335C717.911 983.087 717.651 985.839 717.382 988.674C715.063 997.511 712.026 1001.01 704.829 1006.54C697.282 1007.61 691.009 1008.03 683.5 1007.87C680.655 1007.93 680.655 1007.93 677.752 1007.99C669.1 1007.93 663.434 1007.47 656.398 1002.25C650.021 993.931 649.565 988.076 648.584 977.667C648.401 975.858 648.217 974.048 648.028 972.184C647.434 966.216 646.909 960.243 646.384 954.268C645.985 950.097 645.582 945.926 645.175 941.755C644.331 933.01 643.519 924.264 642.73 915.514C641.725 904.353 640.669 893.198 639.593 882.044C638.564 871.351 637.557 860.656 636.554 849.96C636.363 847.944 636.173 845.929 635.976 843.852C630.216 782.351 630.216 782.351 641.917 766.054C658.854 747.005 682.6 740.451 706.599 751.078Z" fill="#FFF8F7"/>
<path d="M699.496 1025.2C712.915 1031.56 722.157 1041.19 728.822 1054.52C730.174 1069.34 730.855 1082.3 724.323 1095.85C714.106 1106.89 705.644 1115 690.196 1116.48C674.044 1116.9 664.039 1116.49 651.507 1105.18C638.627 1090.56 637.231 1081.7 637.438 1062.47C638.435 1051.75 641.555 1046.39 648.841 1038.53C650.986 1036 653.13 1033.47 655.34 1030.86C667.79 1021.02 684.622 1023.15 699.496 1025.2Z" fill="#FFFBFB"/>
<path d="M691.498 774.593C698.6 779.018 698.6 779.018 704.828 785.257C706.229 792.67 706.229 792.67 705.838 801.102C705.716 804.184 705.595 807.265 705.47 810.44C705.258 813.567 705.046 816.694 704.828 819.915C704.646 822.738 704.464 825.561 704.277 828.469C703.628 837.1 702.839 845.708 702.006 854.324C701.572 858.996 701.572 858.996 701.128 863.762C700.52 870.278 699.903 876.792 699.279 883.306C698.325 893.278 697.396 903.252 696.471 913.226C695.873 919.586 695.275 925.945 694.674 932.305C694.396 935.276 694.119 938.248 693.832 941.309C693.566 944.079 693.299 946.848 693.024 949.701C692.793 952.125 692.563 954.548 692.325 957.045C691.5 963.865 690.27 970.495 688.832 977.21C685.313 977.21 681.794 977.21 678.168 977.21C673.693 942.102 669.62 906.957 666.206 871.73C665.686 866.394 665.149 861.059 664.611 855.724C662.961 838.299 661.662 820.853 661.12 803.357C660.997 800.139 660.874 796.921 660.747 793.605C662.172 785.257 662.172 785.257 668.403 778.877C677.122 773.616 681.475 772.923 691.498 774.593Z" fill="#FF1100"/>
<path d="M675.669 522.873C677.954 522.804 680.239 522.735 682.594 522.664C688.832 523.539 688.832 523.539 693.695 527.059C696.83 531.537 696.83 531.537 696.164 539.868C694.164 547.533 694.164 547.533 691.498 550.199C686.174 550.928 680.84 551.581 675.502 552.199C658.748 554.66 646.724 559.328 632.846 568.861C630.426 570.456 628.007 572.051 625.514 573.693C606.377 592.299 601.399 614.954 597.021 640.479C595.522 646.176 595.522 646.176 590.19 651.508C583.691 652.341 583.691 652.341 576.859 651.508C572.506 648.113 572.506 648.113 568.861 643.51C565.554 613.743 577.205 586.57 595.522 563.529C596.797 561.89 598.071 560.251 599.385 558.562C617.505 537.977 648.28 523.368 675.669 522.873Z" fill="#FFF6F5"/>
<path d="M691.498 1051.86C697.996 1056.19 697.996 1056.19 702.162 1062.52C703.778 1072.22 703.419 1076.61 697.996 1084.85C689.043 1090.82 683.373 1090.72 672.836 1089.18C667.67 1085.02 667.67 1085.02 664.838 1078.52C663.19 1062.86 663.19 1062.86 667.67 1054.69C675.942 1050.16 682.267 1050.73 691.498 1051.86Z" fill="#FF1100"/>
</svg>
