<svg width="1363" height="1365" viewBox="0 0 1363 1365" fill="none" xmlns="http://www.w3.org/2000/svg">
<g clip-path="url(#clip0_2016_1809)">
<path d="M671.119 -1.42388C681.035 -1.36526 690.946 -1.42378 700.861 -1.4932C765.134 -1.57079 825.79 8.31111 887.126 27.2998C890.117 28.2163 890.117 28.2163 893.169 29.1513C968.715 52.7783 1036.66 92.4854 1100.04 139.23C1104.16 142.254 1104.16 142.254 1108.37 145.34C1120.65 154.574 1120.65 154.574 1124.6 158.34C1124.6 160.142 1124.6 161.943 1124.6 163.8C1126.16 164.504 1127.73 165.207 1129.34 165.933C1136.1 169.57 1141.35 173.766 1147.12 178.815C1150.01 181.306 1150.01 181.306 1152.96 183.848C1157.36 188.37 1157.36 188.37 1157.36 193.83C1158.93 194.52 1160.5 195.209 1162.12 195.92C1187.5 209.819 1205.65 239.412 1222.87 262.08C1225.33 265.178 1225.33 265.178 1227.84 268.34C1231.06 273 1231.06 273 1231.06 278.46C1232.86 278.46 1234.66 278.46 1236.52 278.46C1239.75 282.528 1239.75 282.528 1243.35 288.271C1244.69 290.387 1246.02 292.503 1247.4 294.683C1248.82 296.987 1250.24 299.291 1251.7 301.665C1253.9 305.195 1253.9 305.195 1256.14 308.796C1300.22 380.134 1334.04 454.652 1351.67 536.957C1352.1 538.931 1352.52 540.905 1352.95 542.939C1354.27 549.404 1355.46 555.885 1356.62 562.38C1357.35 566.055 1357.35 566.055 1358.1 569.805C1363.68 601.705 1363.09 633.932 1363.09 666.218C1363.1 676.401 1363.2 686.581 1363.31 696.763C1363.51 740.329 1359.65 781.734 1351.16 824.46C1350.72 826.673 1350.29 828.886 1349.83 831.166C1339.69 881.643 1322.93 931.598 1299.3 977.34C1297.72 980.438 1297.72 980.438 1296.12 983.598C1271.69 1031.59 1243.34 1074.85 1209.22 1116.57C1208.06 1118.01 1206.89 1119.46 1205.69 1120.95C1201.99 1125.53 1198.27 1130.09 1194.55 1134.66C1192.28 1137.45 1190 1140.24 1187.66 1143.12C1185.77 1145.17 1183.87 1147.22 1181.92 1149.33C1180.12 1149.33 1178.32 1149.33 1176.47 1149.33C1175.53 1151.59 1175.53 1151.59 1174.58 1153.9C1160.88 1178.23 1132.49 1197.95 1110.95 1214.85C1108.59 1216.75 1106.23 1218.66 1103.8 1220.62C1087.09 1233.96 1087.09 1233.96 1080.93 1233.96C1080.93 1235.76 1080.93 1237.56 1080.93 1239.42C1071.49 1246.6 1061.06 1252.42 1050.9 1258.53C1049.13 1259.6 1047.36 1260.68 1045.54 1261.78C963.998 1311.13 877.469 1343.42 783.4 1359.54C780.439 1360.05 777.477 1360.56 774.426 1361.09C743.948 1365.76 713.694 1366.08 682.916 1366.02C680.208 1366.02 677.5 1366.02 674.71 1366.02C631.68 1365.95 590.84 1363.06 548.653 1354.08C544.397 1353.28 540.139 1352.48 535.879 1351.69C487.679 1342.35 439.665 1326.96 395.795 1304.94C391.767 1303.09 387.732 1301.25 383.693 1299.43C340.3 1279.7 301.854 1255.64 264.773 1225.77C262.257 1223.78 259.741 1221.79 257.149 1219.74C230.513 1198.41 205.716 1175.08 181.52 1151.04C180.209 1149.74 178.899 1148.44 177.548 1147.1C152.859 1122.3 152.859 1122.3 152.859 1113.84C151.057 1113.84 149.256 1113.84 147.399 1113.84C142.946 1108.24 138.832 1102.65 134.775 1096.78C133.552 1095.03 132.329 1093.28 131.069 1091.48C127.394 1086.21 123.748 1080.91 120.103 1075.62C117.332 1071.66 117.332 1071.66 114.505 1067.61C71.2259 1004.43 40.4563 937.385 19.9603 863.704C18.8414 859.788 18.8414 859.788 17.6999 855.793C3.02663 801.048 -1.81077 746.271 -1.42345 689.74C-1.36478 679.595 -1.42336 669.456 -1.49275 659.311C-1.56826 595.414 8.7548 536.03 27.2962 475.02C27.9652 472.802 28.6341 470.585 29.3234 468.3C38.1767 439.356 49.1031 411.946 62.7812 384.93C64.0154 382.473 65.2495 380.015 66.5211 377.484C70.6999 369.199 74.921 360.937 79.1589 352.682C80.4859 350.075 81.8129 347.469 83.18 344.783C92.3861 327.091 102.838 310.901 114.644 294.84C116.748 291.944 118.852 289.047 121.02 286.063C145.989 252.72 172.104 220.205 201.992 191.1C204.119 188.93 204.119 188.93 206.289 186.717C217.901 174.894 229.699 162.892 242.936 152.88C244.738 152.88 246.539 152.88 248.395 152.88C248.395 151.078 248.395 149.276 248.395 147.42C252.212 143.975 252.212 143.975 257.608 140.083C259.6 138.639 261.592 137.195 263.645 135.707C266.905 133.397 266.905 133.397 270.232 131.04C272.457 129.452 274.682 127.864 276.974 126.228C338.087 83.0137 403.058 48.8362 474.953 27.2998C477.1 26.6457 479.247 25.9915 481.459 25.3176C544.174 6.43709 605.643 -1.88226 671.119 -1.42388ZM597.786 180.18C594.419 187.171 594.419 187.171 592.498 195.024C591.643 198.086 590.788 201.147 589.907 204.302C589.441 206.054 588.975 207.805 588.495 209.61C586.579 216.746 584.564 223.853 582.549 230.962C581.029 236.386 579.511 241.81 577.997 247.235C577.258 249.868 576.519 252.5 575.758 255.211C574.734 258.954 574.734 258.954 573.689 262.773C573.072 265.006 572.456 267.239 571.82 269.54C570.108 276.454 570.108 276.454 570.49 286.65C568.689 286.65 566.887 286.65 565.031 286.65C563.511 288.789 561.991 290.929 560.425 293.134C551.326 303.464 542.65 304.836 529.269 306.453C506.616 307.694 488.433 298.129 469.494 286.65C466.792 286.65 464.09 286.65 461.305 286.65C461.305 284.848 461.305 283.046 461.305 281.19C458.673 279.874 456.041 278.557 453.33 277.201C423.091 262.08 423.091 262.08 416.97 258.806C408.612 254.998 402.08 255.532 393.065 256.62C383.077 263.28 376.094 270.856 368.37 279.953C356.132 294.021 342.876 307.01 329.601 320.092C324.747 324.878 319.899 329.669 315.058 334.467C312.935 336.559 310.812 338.65 308.625 340.805C297.675 352.093 297.675 352.093 293.722 366.897C294.936 377.991 297.603 383.102 303.841 392.267C305.832 395.32 307.811 398.381 309.78 401.448C311.409 403.975 311.409 403.975 313.07 406.553C320.064 417.689 326.554 429.102 333.013 440.554C334.359 442.858 335.704 445.161 337.09 447.535C347.526 466.165 348.808 480.187 343.932 501.125C339.943 514.89 334.489 521.374 322.724 529.289C310.035 535.668 296.89 538.686 283.027 541.393C267.416 544.659 252.113 548.556 236.794 552.995C234.777 553.568 232.76 554.141 230.681 554.732C219.371 558.007 219.371 558.007 210.181 565.11C207.836 573.988 207.099 582.379 207.054 591.534C207.037 593.986 207.02 596.437 207.002 598.963C206.999 601.579 206.996 604.196 206.992 606.892C206.983 609.614 206.974 612.337 206.965 615.142C206.951 620.893 206.945 626.643 206.945 632.393C206.939 641.158 206.89 649.922 206.838 658.687C206.83 664.286 206.824 669.884 206.822 675.483C206.802 678.088 206.783 680.694 206.762 683.378C206.811 697.707 207.354 710.128 212.91 723.45C217.701 727.446 217.701 727.446 223.871 728.92C226.134 729.638 228.398 730.356 230.729 731.095C233.181 731.782 235.633 732.468 238.159 733.175C241.935 734.329 241.935 734.329 245.786 735.506C253.91 737.954 262.063 740.269 270.232 742.56C274.438 743.762 274.438 743.762 278.729 744.989C306.818 754.513 306.818 754.513 335.743 758.94C335.574 760.854 335.405 762.769 335.231 764.741C335.169 772.807 335.169 772.807 339.837 779.585C345.999 793.707 346.295 806.567 343.932 821.73C339.607 831.673 333.678 840.118 327.554 849.03C324.413 854.393 321.341 859.796 318.342 865.239C316.969 867.685 315.597 870.131 314.183 872.651C310.597 879.116 310.597 879.116 311.176 887.25C309.375 887.25 307.573 887.25 305.717 887.25C295.753 906.729 295.753 906.729 294.799 928.2C296.6 930.903 298.402 933.605 300.258 936.39C302.059 936.39 303.861 936.39 305.717 936.39C305.717 938.192 305.717 939.993 305.717 941.85C307.519 941.85 309.32 941.85 311.176 941.85C311.176 943.652 311.176 945.453 311.176 947.31C315.593 951.778 315.593 951.778 321.242 956.353C328.095 962.151 334.674 967.935 340.861 974.439C345.967 980.704 345.967 980.704 352.121 980.07C352.121 981.872 352.121 983.673 352.121 985.53C357.125 991.445 357.125 991.445 363.039 996.45C364.841 996.45 366.642 996.45 368.498 996.45C374.689 1008.47 374.852 1016.2 371.228 1029.21C366.543 1036.57 361.536 1043.5 356.204 1050.41C351.361 1056.42 351.361 1056.42 352.121 1064.7C350.319 1064.7 348.518 1064.7 346.661 1064.7C336.375 1094.23 336.16 1120.11 349.178 1148.85C350.149 1150.81 351.12 1152.77 352.121 1154.79C353.528 1157.66 354.936 1160.53 356.386 1163.49C377.006 1187.29 402.814 1195.03 433.019 1197.2C457.057 1198.81 481.039 1198.8 505.121 1198.7C509.919 1198.69 514.716 1198.68 519.514 1198.68C532.417 1198.65 545.32 1198.61 558.223 1198.55C566.304 1198.52 574.385 1198.49 582.467 1198.47C607.813 1198.38 633.159 1198.27 658.505 1198.15C687.657 1198.01 716.809 1197.92 745.961 1197.86C768.586 1197.82 791.209 1197.73 813.833 1197.61C827.309 1197.54 840.785 1197.49 854.262 1197.48C866.926 1197.47 879.588 1197.41 892.252 1197.32C896.879 1197.29 901.505 1197.28 906.132 1197.29C941.862 1197.36 971.59 1193.29 999.04 1168.44C1015.76 1151.71 1022.59 1128.03 1023.85 1104.87C1023.09 1081.87 1012.51 1064.41 1000.83 1045.13C993.93 1033.33 988.442 1022.29 987.78 1008.39C991.953 999.583 998.204 995.017 1005.87 989.166C1007.9 987.366 1007.9 987.366 1009.96 985.53C1009.96 983.728 1009.96 981.926 1009.96 980.07C1011.5 979.426 1013.04 978.782 1014.63 978.118C1022.3 973.812 1027.42 968.493 1033.5 962.154C1044.91 950.305 1044.91 950.305 1050.9 947.31C1050.9 945.508 1050.9 943.706 1050.9 941.85C1052.7 941.85 1054.51 941.85 1056.36 941.85C1056.36 940.048 1056.36 938.246 1056.36 936.39C1058.16 936.39 1059.97 936.39 1061.82 936.39C1068.15 928.632 1068.15 928.632 1066.95 919.498C1064.15 907.361 1059.51 898.037 1053.46 887.25C1052.38 885.236 1051.29 883.222 1050.17 881.147C1044.82 871.238 1039.29 861.463 1033.5 851.802C1020.73 830.116 1013.53 811.935 1018.15 786.24C1024.27 764.781 1024.27 764.781 1033.95 758.503C1041.02 755.816 1047.92 754.293 1055.34 752.797C1070.7 749.367 1085.59 745.087 1100.55 740.171C1103.51 739.22 1103.51 739.22 1106.53 738.249C1117.83 734.46 1128.38 729.918 1139.01 724.526C1142.65 722.688 1142.65 722.688 1146.36 720.813C1148.18 719.881 1150.01 718.95 1151.9 717.99C1152.43 697.585 1152.91 677.179 1153.36 656.771C1153.52 649.828 1153.69 642.885 1153.87 635.942C1154.13 625.967 1154.35 615.993 1154.56 606.017C1154.65 602.909 1154.74 599.8 1154.83 596.597C1154.91 592.253 1154.91 592.253 1155 587.822C1155.09 584.002 1155.09 584.002 1155.18 580.106C1154.59 572.803 1153.15 568.498 1149.17 562.38C1143.37 559.577 1143.37 559.577 1136.54 558.114C1127.85 555.812 1119.48 553.434 1111.12 550.095C1100 545.791 1088.63 542.728 1077.1 539.697C1071.4 538.18 1065.75 536.487 1060.12 534.739C1048.91 531.832 1037.85 530.612 1026.34 529.62C1026.62 527.03 1026.9 524.44 1027.19 521.771C1027.34 509.281 1021.61 500.373 1015.41 489.843C1012.03 481.596 1012.64 477.952 1015.42 469.56C1018.69 463.407 1018.69 463.407 1022.75 457.104C1030.57 444.496 1037.35 431.643 1043.82 418.298C1046.95 411.968 1050.16 405.782 1053.55 399.593C1054.44 397.919 1055.34 396.244 1056.26 394.519C1058.79 389.782 1061.37 385.068 1063.94 380.355C1067.92 369.542 1067.36 363.251 1064.55 352.17C1058.87 345.116 1058.87 345.116 1050.9 338.52C1047.01 334.736 1043.14 330.924 1039.3 327.088C1036.49 324.327 1036.49 324.327 1033.63 321.511C1029.07 316.68 1029.07 316.68 1026.34 311.22C1024.53 311.22 1022.73 311.22 1020.88 311.22C1020.88 309.418 1020.88 307.616 1020.88 305.76C1017.01 301.85 1017.01 301.85 1011.84 297.74C999.004 287.001 987.891 274.895 976.681 262.517C969.426 256.059 969.426 256.059 960.388 254.786C945.191 257.445 933.477 264.475 920.222 272.147C917.65 273.595 915.078 275.043 912.428 276.535C902.568 282.093 892.737 287.696 882.965 293.407C880.84 294.629 878.716 295.852 876.527 297.111C874.679 298.191 872.832 299.271 870.928 300.383C850.497 309.972 830.435 305.767 809.737 299.628C791.123 287.3 786.795 264.718 782.371 244.079C781.754 241.01 781.136 237.941 780.5 234.78C774.866 199.331 774.866 199.331 756.295 170.044C743.45 164.657 731.004 165.253 717.207 165.25C712.741 165.219 712.741 165.219 708.184 165.187C701.897 165.158 695.611 165.15 689.324 165.162C679.708 165.165 670.098 165.051 660.482 164.93C654.369 164.916 648.256 164.909 642.143 164.909C639.27 164.864 636.398 164.819 633.439 164.773C616.862 164.93 608.044 165.782 597.786 180.18Z" fill="#020202"/>
<path d="M625.083 237.51C662.015 237.51 698.946 237.51 736.997 237.51C756.192 298.302 756.192 298.302 761.532 324.385C764.126 335.369 765.651 340.076 774.465 347.616C807.363 365.889 807.363 365.889 843.452 368.55C854.814 363.849 865.456 358.118 876.208 352.17C879.346 350.502 882.485 348.834 885.719 347.115C902.597 338.166 902.597 338.166 919.071 328.506C927.743 323.476 931.811 322.927 941.718 324.87C949.862 330.358 956.597 337.081 963.555 343.98C967.25 347.522 967.25 347.522 971.019 351.135C985.156 364.895 985.156 364.895 990.852 371.28C990.852 373.082 990.852 374.883 990.852 376.74C992.653 376.74 994.455 376.74 996.311 376.74C1003.95 384.157 1007.03 388.514 1008.17 399.209C1007.09 411.033 1003.2 419.243 997.334 429.292C996.347 431.06 995.36 432.828 994.342 434.649C992.34 438.23 990.322 441.802 988.287 445.364C984.149 452.634 980.167 459.988 976.18 467.342C974.92 469.633 973.661 471.924 972.363 474.284C965.789 486.449 961.979 493.591 963.555 507.78C966.563 517.179 970.442 526.08 974.474 535.08C975.494 537.568 976.515 540.056 977.566 542.619C982.651 554.155 985.759 560.914 996.652 567.669C1000.14 568.757 1003.68 569.71 1007.23 570.57C1009.58 571.221 1011.94 571.872 1014.36 572.543C1019.54 573.969 1024.73 575.362 1029.93 576.723C1036.08 578.433 1041.89 580.361 1047.83 582.684C1063.15 588.488 1078.92 593.051 1094.58 597.87C1094.58 633.005 1094.58 668.14 1094.58 704.34C1077.82 711.789 1062.74 717.844 1045.27 722.426C1043.22 722.982 1041.17 723.538 1039.06 724.111C1031.02 726.281 1022.99 728.433 1014.86 730.27C999.346 733.807 990.196 738.721 979.933 750.75C976.353 757.085 974.102 762.924 971.744 769.86C969.943 769.86 968.141 769.86 966.285 769.86C962.046 800.232 962.87 819.619 979.933 846.3C982.78 851.075 985.623 855.853 988.463 860.632C989.804 862.828 991.144 865.024 992.526 867.287C1010.83 897.822 1010.83 897.822 1009.96 911.82C1004.76 920.196 997.807 926.726 990.852 933.66C987.946 936.719 985.047 939.784 982.151 942.852C979.027 946.105 975.9 949.354 972.768 952.599C971.267 954.183 969.766 955.767 968.219 957.399C959.832 965.899 954.229 971.159 941.718 971.88C915.184 927.143 915.184 927.143 906.233 910.455C899.38 897.731 892.208 885.218 884.908 872.747C883.753 870.768 882.597 868.788 881.407 866.749C875.693 857.06 869.84 847.54 863.53 838.227C862.391 836.534 861.252 834.84 860.079 833.096C856.957 828.505 853.779 823.954 850.596 819.405C845.251 808.998 844.525 803.264 846.182 791.7C849.773 785.112 853.227 779.593 857.612 773.614C869.733 756.022 877.666 738.321 884.397 717.99C885.357 715.456 886.318 712.922 887.307 710.312C892.964 690.996 893.024 671.1 892.927 651.105C892.937 648.948 892.948 646.79 892.959 644.568C892.887 600.853 881.826 565.244 857.068 529.417C851.641 521.43 851.641 521.43 848.688 515.063C846.31 509.523 846.31 509.523 837.993 507.78C836.895 505.33 836.895 505.33 835.775 502.832C832.027 495.926 827.723 493.252 821.125 489.203C815.293 485.373 810.099 481.005 804.726 476.555C757.569 439.707 694.176 434.627 636.641 440.596C602.334 447.321 570.823 465.792 543.567 487.123C537.735 491.4 537.735 491.4 529.546 494.13C529.546 495.932 529.546 497.733 529.546 499.59C527.745 499.59 525.943 499.59 524.087 499.59C523.429 501.026 522.771 502.461 522.093 503.941C518.508 510.736 514.385 517.021 510.104 523.395C497.697 541.96 487.892 560.345 480.413 581.49C479.576 583.848 478.738 586.205 477.875 588.635C465.789 625.59 464.298 672.297 474.954 709.8C475.454 711.7 475.953 713.6 476.468 715.558C483.199 738.33 493.991 763.473 509.661 781.409C515.898 788.97 515.898 788.97 516.41 797.501C509.728 825.449 490.961 851.175 476.383 875.626C470.062 886.239 463.957 896.963 457.894 907.725C450.692 920.403 443.124 932.62 434.884 944.644C429.587 952.575 424.976 960.807 420.362 969.15C407.598 969.15 404.812 966.747 395.795 958.23C395.795 956.428 395.795 954.626 395.795 952.77C393.993 952.77 392.192 952.77 390.336 952.77C390.336 950.968 390.336 949.166 390.336 947.31C388.035 946.302 388.035 946.302 385.687 945.273C372.126 937.869 357.941 926.019 352.686 911.159C351.675 895.803 358.298 885.04 366.537 872.544C372.948 862.795 378.321 852.577 383.81 842.29C387.024 836.44 390.474 830.915 394.089 825.313C399.525 814.229 401.093 806.343 398.525 794.43C393.783 781.319 388.295 768.733 382.147 756.21C381.123 753.799 380.099 751.389 379.044 748.905C364.388 730.621 334.581 727.214 313.053 721.744C306.749 720.126 300.447 718.499 294.149 716.859C290.009 715.806 290.009 715.806 285.786 714.731C278.421 712.53 278.421 712.53 267.503 707.07C267.503 671.034 267.503 634.998 267.503 597.87C284.618 592.464 301.732 587.059 319.366 581.49C327.473 578.787 335.58 576.084 343.932 573.3C348.291 572.35 352.667 571.467 357.069 570.74C370.541 567.882 375.945 562.226 383.416 550.809C396.658 526.984 402.225 501.547 395.795 475.02C393.993 475.02 392.192 475.02 390.336 475.02C389.146 472.577 387.957 470.135 386.732 467.619C385.092 464.283 383.45 460.949 381.806 457.616C380.95 455.875 380.095 454.135 379.214 452.341C373.975 441.831 368.286 431.965 361.845 422.126C354.225 409.682 352.398 402.132 354.851 387.66C361.721 375.921 372.6 367.792 382.947 359.133C387.89 355.154 387.89 355.154 390.336 349.44C392.137 349.44 393.939 349.44 395.795 349.44C395.795 347.638 395.795 345.836 395.795 343.98C399.9 339.266 399.9 339.266 405.519 334.084C407.324 332.359 409.129 330.635 410.989 328.858C420.552 323.117 425.648 323.327 436.739 324.87C446.652 328.918 455.89 333.984 465.23 339.202C470.173 341.891 475.117 344.579 480.061 347.264C483.612 349.209 483.612 349.209 487.235 351.193C513.911 366.478 513.911 366.478 543.706 367.249C550.058 365.241 556.145 362.902 562.302 360.36C564.522 359.501 566.742 358.642 569.03 357.758C580.813 352.945 588.401 349.813 595.057 338.52C597.463 331.403 599.589 324.428 601.54 317.192C602.706 313.034 603.879 308.879 605.059 304.725C605.654 302.628 606.25 300.53 606.863 298.368C610.685 285.381 615.168 272.614 619.581 259.819C622.763 250.436 622.763 250.436 625.083 237.51Z" fill="#040404"/>
<path d="M719.937 645.133C721.963 647.554 723.99 649.975 726.078 652.47C727.824 654.44 729.569 656.411 731.367 658.442C744.292 676.07 754.57 695.403 764.954 714.599C780.453 743.189 796.017 771.655 813.469 799.111C819.553 809.186 825.156 819.464 830.758 829.812C838.625 844.303 846.672 858.693 854.712 873.088C856.369 876.07 858.026 879.053 859.734 882.126C869.348 899.476 869.348 899.476 880.11 916.117C884.396 922.74 884.396 922.74 884.396 930.93C886.198 930.93 887.999 930.93 889.855 930.93C890.816 932.717 891.777 934.505 892.766 936.347C902.01 953.437 911.644 970.205 921.736 986.809C925.34 993.72 925.34 993.72 925.34 1001.91C927.142 1001.91 928.944 1001.91 930.8 1001.91C931.729 1003.63 932.658 1005.36 933.615 1007.14C940.76 1020.33 947.993 1033.46 955.452 1046.47C957.335 1049.76 959.208 1053.06 961.071 1056.36C964.997 1063.3 968.974 1070.1 973.439 1076.71C985 1094.33 986.091 1112.33 982.662 1132.95C978.558 1141.92 973.508 1148.15 966.285 1154.79C963.92 1157.1 961.555 1159.4 959.118 1161.78C949.503 1169.67 940.518 1170.54 928.372 1170.62C926.066 1170.68 923.761 1170.75 921.385 1170.81C912.695 1171.02 904.008 1171.1 895.315 1171.17C891.63 1171.21 887.945 1171.26 884.26 1171.3C851.76 1171.68 819.261 1171.76 786.759 1171.82C781.541 1171.83 776.323 1171.84 771.104 1171.85C746.636 1171.91 722.167 1171.94 697.698 1171.97C669.561 1171.99 641.424 1172.07 613.287 1172.18C591.43 1172.26 569.574 1172.3 547.717 1172.31C534.702 1172.31 521.687 1172.34 508.672 1172.41C496.468 1172.47 484.264 1172.48 472.059 1172.45C467.591 1172.45 463.122 1172.47 458.654 1172.51C452.542 1172.56 446.434 1172.54 440.323 1172.5C435.202 1172.51 435.202 1172.51 429.977 1172.52C414.489 1170.34 402.132 1162.99 392.212 1150.69C390.928 1149.15 389.643 1147.6 388.32 1146C378.186 1131.69 376.009 1117.8 378.132 1100.34C382.853 1079.73 395.97 1060.8 406.713 1042.86C407.716 1041.17 408.72 1039.48 409.753 1037.74C415.855 1027.51 422.202 1017.44 428.55 1007.37C441.352 986.511 453.791 965.516 465.389 943.961C478.915 919.014 493.395 894.652 508.05 870.358C517.942 853.955 527.624 837.522 536.647 820.621C546.164 802.966 556.355 785.669 566.346 768.279C570.746 760.618 575.139 752.954 579.532 745.29C580.94 742.843 582.348 740.395 583.798 737.874C590.639 725.936 597.273 714.006 603.246 701.61C605.047 701.61 606.849 701.61 608.705 701.61C609.051 700.005 609.397 698.4 609.753 696.746C612.431 687.101 617.77 678.916 622.865 670.385C623.887 668.596 624.909 666.806 625.962 664.963C634.032 651.393 643.242 639.3 658.691 633.872C702.881 630.788 702.881 630.788 719.937 645.133ZM636.001 769.86C631.227 777.861 629.853 783.607 630.03 792.894C630.048 794.918 630.065 796.941 630.083 799.026C630.399 805.328 630.399 805.328 631.789 811.311C633.958 822.56 634.722 833.867 635.66 845.276C636.003 849.259 636.003 849.259 636.353 853.322C637.69 868.904 638.945 884.49 640.127 900.084C640.784 908.683 641.467 917.28 642.153 925.877C642.485 930.13 642.806 934.384 643.113 938.639C643.552 944.689 644.032 950.734 644.52 956.779C644.786 960.283 645.051 963.786 645.325 967.395C647.454 980.672 650.833 992.173 660.568 1001.91C667.43 1002.67 673.83 1003.05 680.698 1003.1C683.454 1003.24 683.454 1003.24 686.264 1003.38C696.393 1003.49 700.642 1002.73 708.101 995.693C715.448 983.079 715.979 970.494 717.122 956.14C717.293 954.086 717.465 952.032 717.641 949.917C718.187 943.361 718.722 936.804 719.254 930.247C719.788 923.729 720.325 917.212 720.867 910.695C721.203 906.648 721.535 902.6 721.861 898.552C722.63 889.245 723.55 880.003 724.789 870.746C726.731 854.479 726.897 838.238 727.034 821.878C727.079 817.901 727.154 813.925 727.258 809.95C727.408 804.143 727.467 798.34 727.507 792.532C727.561 789.096 727.615 785.661 727.671 782.122C725.342 768.185 718.444 760.62 706.992 752.221C678.999 738.629 655.774 746.594 636.001 769.86ZM642.462 1041.29C634.58 1056.14 634.288 1067.18 639.072 1083.13C645.754 1094.71 652.547 1102.73 664.321 1109.23C681.48 1113.73 694.155 1111.13 709.701 1102.92C722.895 1092.58 725.356 1081.22 727.443 1065.04C727.12 1051.02 719.13 1041.69 709.701 1031.94C697.939 1020.82 685.676 1021.59 670.132 1021.93C656.428 1024.54 650.551 1030.23 642.462 1041.29Z" fill="#040404"/>
<path d="M783.4 502.32C822.105 531.663 846.884 569.997 855.82 617.876C860.788 656.798 855.679 692.581 840.722 728.91C838.92 728.91 837.119 728.91 835.263 728.91C835.094 730.374 834.925 731.838 834.751 733.346C831.44 743.025 825.856 748.728 818.885 756.21C817.083 756.21 815.282 756.21 813.426 756.21C809.289 750.003 809.289 750.003 804.554 741.536C801.995 737.018 801.995 737.018 799.383 732.408C796.876 727.974 796.876 727.974 794.318 723.45C791.663 719.003 788.992 714.566 786.3 710.141C774.963 691.324 763.962 672.258 753.398 652.997C739.871 628.586 721.514 611.963 696.052 600.6C676.858 596.38 660.654 600.115 643.219 608.598C638.277 611.276 638.277 611.276 636.001 616.98C634.199 616.98 632.397 616.98 630.541 616.98C630.541 618.782 630.541 620.584 630.541 622.44C628.74 622.44 626.938 622.44 625.082 622.44C624.329 624.442 623.576 626.445 622.8 628.508C619.833 635.589 616.498 641.692 612.458 648.204C605.852 659.029 599.45 669.941 593.18 680.964C592.286 682.518 591.393 684.072 590.472 685.673C584.787 695.577 579.258 705.551 573.816 715.591C571.173 720.372 568.528 725.153 565.884 729.934C564.651 732.258 563.419 734.582 562.15 736.977C560.95 739.122 559.751 741.267 558.516 743.477C557.468 745.407 556.421 747.337 555.342 749.325C551.382 753.48 551.382 753.48 544.402 754.399C537.734 753.48 537.734 753.48 533.107 748.777C516.175 721.063 507.228 695.062 505.661 662.707C505.55 660.434 505.438 658.161 505.323 655.819C504.642 637.715 506.019 620.955 510.438 603.33C511.005 600.958 511.571 598.586 512.155 596.142C517.399 576.542 526.537 560.069 537.734 543.27C539.536 543.27 541.337 543.27 543.194 543.27C544.995 538.765 546.797 534.261 548.653 529.62C550.454 529.62 552.256 529.62 554.112 529.62C554.847 527.98 555.583 526.34 556.341 524.651C570.623 498.344 607.606 484.756 634.534 476.37C685.618 462.414 739.082 474.538 783.4 502.32ZM625.082 535.08C625.082 536.882 625.082 538.684 625.082 540.54C623.168 541.103 621.254 541.666 619.282 542.246C609.246 547.047 601.954 553.656 595.056 562.38C595.056 564.182 595.056 565.984 595.056 567.84C593.255 567.84 591.453 567.84 589.597 567.84C570.623 601.153 570.623 601.153 567.76 638.82C571.101 644.027 571.101 644.027 575.949 647.01C583.195 646.381 583.195 646.381 589.597 644.28C592.432 635.999 595.097 627.75 597.402 619.305C604.108 595.007 611.794 576.904 633.271 562.721C648.885 553.912 664.706 550.434 682.201 547.269C687.807 546.543 687.807 546.543 690.593 543.27C690.704 537.811 690.709 532.349 690.593 526.89C670.237 516.711 644.774 528.261 625.082 535.08Z" fill="#070707"/>
<path d="M696.735 772.419C701.512 775.32 701.512 775.32 704.242 780.78C704.587 788.7 704.744 796.522 704.732 804.444C704.729 806.862 704.726 809.281 704.722 811.773C704.489 838.277 702.344 864.56 699.877 890.936C699.113 899.137 698.396 907.342 697.684 915.547C697.207 920.835 696.727 926.123 696.245 931.41C696.034 933.827 695.823 936.244 695.606 938.735C694.316 952.229 692.036 964.435 687.864 977.34C683.36 977.34 678.856 977.34 674.216 977.34C666.418 930.44 660.831 883.846 657.57 836.409C657.296 832.447 657.011 828.486 656.717 824.526C656.304 818.914 655.936 813.301 655.578 807.685C655.355 804.41 655.133 801.134 654.903 797.759C655.114 788.732 656.284 783.223 660.568 775.32C674.294 766.168 681.997 766.277 696.735 772.419Z" fill="#0F0E0E"/>
<path d="M690.593 1045.59C692.395 1046.49 694.197 1047.39 696.053 1048.32C696.053 1050.12 696.053 1051.92 696.053 1053.78C697.854 1053.78 699.656 1053.78 701.512 1053.78C702.291 1063 702.668 1071.88 701.512 1081.08C693.882 1088.94 688.801 1089.17 677.969 1090.29C668.757 1089.27 668.757 1089.27 664.118 1086.08C659.146 1079.08 659.756 1074.04 660.056 1065.55C660.13 1062.84 660.204 1060.13 660.28 1057.33C660.375 1055.26 660.47 1053.19 660.568 1051.05C670.963 1045.26 678.671 1044.93 690.593 1045.59Z" fill="#1A1919"/>
<path d="M1034.52 958.23C1034.52 966.42 1034.52 966.42 1028.53 973.117C1025.88 975.681 1023.22 978.225 1020.54 980.752C1009.05 991.873 998.278 1003.21 988.121 1015.56C987.22 1012.86 986.32 1010.15 985.392 1007.37C989.113 1001.79 989.113 1001.79 994.433 995.938C996.168 993.985 997.903 992.032 999.69 990.02C1004.5 985.53 1004.5 985.53 1009.96 985.53C1009.96 983.728 1009.96 981.926 1009.96 980.07C1014.64 975.452 1014.64 975.452 1020.71 970.344C1022.7 968.652 1024.7 966.959 1026.75 965.215C1028.42 963.811 1030.08 962.407 1031.8 960.96C1032.7 960.059 1033.6 959.158 1034.52 958.23Z" fill="#4B4747"/>
</g>
<defs>
<clipPath id="clip0_2016_1809">
<rect width="1362.08" height="1365" fill="white"/>
</clipPath>
</defs>
</svg>
